<svg version="1.1" id="sheriff-star-svg" xmlns="http://www.w3.org/2000/svg" xmlns:xlink="http://www.w3.org/1999/xlink" x="0px" y="0px" viewBox="0 0 472.811 472.811" style="enable-background:new 0 0 472.811 472.811;" xml:space="preserve"><g fill="#F5F5F5"><path d="M414.763,308.966c-5.547,0-10.696,1.519-15.15,4.115c-1.633,0.956-3.715,0.516-4.825-1.01l-44.236-60.429 c-6.643-9.071-6.643-21.401,0-30.472l44.221-60.414c1.111-1.526,3.208-1.965,4.841-1.008c4.438,2.596,9.603,4.13,15.15,4.13 c16.818,0,30.458-13.626,30.458-30.45c0-16.816-13.64-30.442-30.458-30.442c-16.8,0-30.441,13.625-30.441,30.442	c0,1.888-1.417,3.468-3.299,3.668l-74.354,8.084c-11.175,1.219-21.856-4.947-26.388-15.229l-30.226-68.482 c-0.757-1.719-0.094-3.738,1.526-4.678c9.124-5.263,15.273-15.082,15.273-26.341c0-16.816-13.641-30.45-30.456-30.45	c-16.802,0-30.443,13.633-30.443,30.45c0,11.259,6.15,21.078,15.26,26.341c1.635,0.94,2.282,2.952,1.526,4.678l-30.21,68.475 c-4.531,10.289-15.214,16.455-26.389,15.236l-74.356-8.084c-1.879-0.201-3.297-1.78-3.297-3.668 c0-16.816-13.642-30.442-30.457-30.442c-16.802,0-30.441,13.625-30.441,30.442c0,16.824,13.64,30.45,30.441,30.45 c5.564,0,10.712-1.534,15.166-4.13c1.649-0.957,3.729-0.524,4.841,1.008l44.221,60.414c6.628,9.071,6.628,21.401,0,30.472 l-44.236,60.429c-1.109,1.526-3.206,1.966-4.841,1.018c-4.454-2.604-9.587-4.123-15.15-4.123c-16.802,0-30.441,13.624-30.441,30.442 c0,16.824,13.64,30.45,30.441,30.45c16.815,0,30.457-13.626,30.457-30.45c0-1.912,1.418-3.491,3.297-3.692l74.356-8.085 c11.175-1.218,21.857,4.948,26.389,15.236l30.21,68.475c0.756,1.719,0.093,3.737-1.526,4.678	c-9.109,5.264-15.26,15.081-15.26,26.341c0,16.817,13.642,30.45,30.443,30.45c16.815,0,30.456-13.632,30.456-30.45 c0-11.26-6.149-21.077-15.273-26.341c-1.62-0.941-2.283-2.96-1.526-4.678l30.226-68.483c4.531-10.28,15.213-16.446,26.388-15.228	l74.354,8.085c1.882,0.201,3.299,1.788,3.299,3.692c0,16.824,13.642,30.45,30.441,30.45c16.818,0,30.458-13.626,30.458-30.45 C445.221,322.59,431.581,308.966,414.763,308.966z"/></g></svg>